<svg id="visual" viewBox="0 0 960 540" width="960" height="540" xmlns="http://www.w3.org/2000/svg" xmlns:xlink="http://www.w3.org/1999/xlink" version="1.1"><path d="M0 17L32 27.8C64 38.7 128 60.3 192 73.8C256 87.3 320 92.7 384 89C448 85.3 512 72.7 576 65.5C640 58.3 704 56.7 768 53.2C832 49.7 896 44.3 928 41.7L960 39L960 0L928 0C896 0 832 0 768 0C704 0 640 0 576 0C512 0 448 0 384 0C320 0 256 0 192 0C128 0 64 0 32 0L0 0Z" fill="#6198ff"></path><path d="M0 109L32 106.3C64 103.7 128 98.3 192 109.2C256 120 320 147 384 165.8C448 184.7 512 195.3 576 193.5C640 191.7 704 177.3 768 163C832 148.7 896 134.3 928 127.2L960 120L960 37L928 39.7C896 42.3 832 47.7 768 51.2C704 54.7 640 56.3 576 63.5C512 70.7 448 83.3 384 87C320 90.7 256 85.3 192 71.8C128 58.3 64 36.7 32 25.8L0 15Z" fill="#548fff"></path><path d="M0 136L32 130.7C64 125.3 128 114.7 192 125.5C256 136.3 320 168.7 384 189.3C448 210 512 219 576 216.3C640 213.7 704 199.3 768 184C832 168.7 896 152.3 928 144.2L960 136L960 118L928 125.2C896 132.3 832 146.7 768 161C704 175.3 640 189.7 576 191.5C512 193.3 448 182.7 384 163.8C320 145 256 118 192 107.2C128 96.3 64 101.7 32 104.3L0 107Z" fill="#4686ff"></path><path d="M0 163L32 158.5C64 154 128 145 192 154.8C256 164.7 320 193.3 384 209.5C448 225.7 512 229.3 576 223.2C640 217 704 201 768 186.7C832 172.3 896 159.7 928 153.3L960 147L960 134L928 142.2C896 150.3 832 166.7 768 182C704 197.3 640 211.7 576 214.3C512 217 448 208 384 187.3C320 166.7 256 134.3 192 123.5C128 112.7 64 123.3 32 128.7L0 134Z" fill="#387dff"></path><path d="M0 309L32 296.3C64 283.7 128 258.3 192 252.8C256 247.3 320 261.7 384 277C448 292.3 512 308.7 576 311.5C640 314.3 704 303.7 768 290.2C832 276.7 896 260.3 928 252.2L960 244L960 145L928 151.3C896 157.7 832 170.3 768 184.7C704 199 640 215 576 221.2C512 227.3 448 223.7 384 207.5C320 191.3 256 162.7 192 152.8C128 143 64 152 32 156.5L0 161Z" fill="#2874ff"></path><path d="M0 357L32 339C64 321 128 285 192 282.3C256 279.7 320 310.3 384 332.8C448 355.3 512 369.7 576 367C640 364.3 704 344.7 768 328.5C832 312.3 896 299.7 928 293.3L960 287L960 242L928 250.2C896 258.3 832 274.7 768 288.2C704 301.7 640 312.3 576 309.5C512 306.7 448 290.3 384 275C320 259.7 256 245.3 192 250.8C128 256.3 64 281.7 32 294.3L0 307Z" fill="#126bff"></path><path d="M0 384L32 363.3C64 342.7 128 301.3 192 298.7C256 296 320 332 384 353.7C448 375.3 512 382.7 576 378.2C640 373.7 704 357.3 768 342C832 326.7 896 312.3 928 305.2L960 298L960 285L928 291.3C896 297.7 832 310.3 768 326.5C704 342.7 640 362.3 576 365C512 367.7 448 353.3 384 330.8C320 308.3 256 277.7 192 280.3C128 283 64 319 32 337L0 355Z" fill="#0064f9"></path><path d="M0 401L32 386.5C64 372 128 343 192 342C256 341 320 368 384 393.2C448 418.3 512 441.7 576 446.2C640 450.7 704 436.3 768 416.7C832 397 896 372 928 359.5L960 347L960 296L928 303.2C896 310.3 832 324.7 768 340C704 355.3 640 371.7 576 376.2C512 380.7 448 373.3 384 351.7C320 330 256 294 192 296.7C128 299.3 64 340.7 32 361.3L0 382Z" fill="#005fec"></path><path d="M0 411L32 402C64 393 128 375 192 375C256 375 320 393 384 418.3C448 443.7 512 476.3 576 478.2C640 480 704 451 768 430.2C832 409.3 896 396.7 928 390.3L960 384L960 345L928 357.5C896 370 832 395 768 414.7C704 434.3 640 448.7 576 444.2C512 439.7 448 416.3 384 391.2C320 366 256 339 192 340C128 341 64 370 32 384.5L0 399Z" fill="#005ae0"></path><path d="M0 438L32 430C64 422 128 406 192 405.2C256 404.3 320 418.7 384 443C448 467.3 512 501.7 576 504.3C640 507 704 478 768 459C832 440 896 431 928 426.5L960 422L960 382L928 388.3C896 394.7 832 407.3 768 428.2C704 449 640 478 576 476.2C512 474.3 448 441.7 384 416.3C320 391 256 373 192 373C128 373 64 391 32 400L0 409Z" fill="#0055d3"></path><path d="M0 444L32 446.7C64 449.3 128 454.7 192 455.5C256 456.3 320 452.7 384 465.3C448 478 512 507 576 517.8C640 528.7 704 521.3 768 506.8C832 492.3 896 470.7 928 459.8L960 449L960 420L928 424.5C896 429 832 438 768 457C704 476 640 505 576 502.3C512 499.7 448 465.3 384 441C320 416.7 256 402.3 192 403.2C128 404 64 420 32 428L0 436Z" fill="#0051c7"></path><path d="M0 541L32 541C64 541 128 541 192 541C256 541 320 541 384 541C448 541 512 541 576 541C640 541 704 541 768 541C832 541 896 541 928 541L960 541L960 447L928 457.8C896 468.7 832 490.3 768 504.8C704 519.3 640 526.7 576 515.8C512 505 448 476 384 463.3C320 450.7 256 454.3 192 453.5C128 452.7 64 447.3 32 444.7L0 442Z" fill="#004cbb"></path></svg>